<svg viewBox="0 0 512 512" xmlns="http://www.w3.org/2000/svg"><path d="M468.5 253.5c0-115.794-94.206-210-210-210s-210 94.206-210 210 94.206 210 210 210 210-94.206 210-210zm-210 200c-110.28 0-200-89.72-200-200s89.72-200 200-200 200 89.72 200 200-89.72 200-200 200z"/><path d="M258.5 88.5c-90.981 0-165 74.019-165 165s74.019 165 165 165 165-74.019 165-165-74.019-165-165-165zm0 320c-85.468 0-155-69.532-155-155 0-85.467 69.532-155 155-155s155 69.533 155 155c0 85.468-69.532 155-155 155z"/><path d="M358.217 273.5c-6.517 0-12.06 4.184-14.125 10h-7.799a48.005 48.005 0 00-7.152-20.672l12.855-12.854c8.007 4.843 18.503 3.82 25.417-3.092 8.102-8.104 8.102-21.29-.001-29.395-8.122-8.122-21.272-8.125-29.395 0-6.914 6.912-7.936 17.409-3.093 25.416l-12.005 12.005c-7.701-7.954-18.095-13.285-29.703-14.483v-7.8c5.816-2.066 10-7.609 10-14.125 0-8.271-6.728-15-15-15-8.271 0-15 6.729-15 15 0 6.516 4.184 12.059 10 14.125v7.8c-9.583.989-18.34 4.794-25.438 10.565l-5.535-5.535c2.651-5.574 1.689-12.452-2.917-17.059-5.862-5.863-15.351-5.862-21.213 0-5.849 5.849-5.849 15.365 0 21.213 4.579 4.579 11.404 5.627 17.064 2.921l5.53 5.53c-5.832 7.173-9.652 16.041-10.593 25.742h-13.66c-2.193-7.852-9.394-13.636-17.936-13.636-10.275 0-18.636 8.36-18.636 18.636s8.36 18.637 18.636 18.637c8.542 0 15.743-5.784 17.936-13.637h13.726c1.038 9.465 4.817 18.113 10.527 25.137l-5.53 5.53c-5.655-2.704-12.484-1.659-17.064 2.922a14.898 14.898 0 00-4.394 10.605c0 8.291 6.709 15 15 15a14.9 14.9 0 0010.607-4.394c4.606-4.607 5.567-11.484 2.915-17.058l5.536-5.536c7.099 5.771 15.855 9.575 25.438 10.564v7.801c-5.816 2.065-10 7.608-10 14.125 0 8.272 6.729 15 15 15 8.272 0 15-6.728 15-15 0-6.517-4.184-12.06-10-14.125v-7.801c9.583-.989 18.341-4.794 25.439-10.565l5.531 5.531c-2.71 5.666-1.65 12.493 2.922 17.063 5.858 5.86 15.35 5.864 21.214 0 5.847-5.849 5.847-15.363-.001-21.212-4.575-4.577-11.404-5.629-17.065-2.922l-5.53-5.53c5.771-7.099 9.576-15.857 10.566-25.44h7.799c2.065 5.816 7.608 10 14.125 10 8.272 0 15-6.728 15-15s-6.727-14.997-14.998-14.997zm-5.502-52.101c2.881 0 5.59 1.122 7.626 3.159 4.205 4.206 4.205 11.048.001 15.253a10.781 10.781 0 01-15.254 0 10.716 10.716 0 01-3.159-7.626 10.78 10.78 0 0110.786-10.786zm-64.498-7.899c2.757 0 5 2.243 5 5s-2.243 5-5 5-5-2.243-5-5 2.243-5 5-5zm-53.033 29.038a5.006 5.006 0 010-7.071 4.997 4.997 0 017.071-.001 5.007 5.007 0 01.001 7.071 4.968 4.968 0 01-3.536 1.464 4.963 4.963 0 01-3.536-1.463zm-26.665 54.902c-4.762 0-8.636-3.874-8.636-8.637 0-4.762 3.874-8.636 8.636-8.636 4.763 0 8.637 3.874 8.637 8.636 0 4.762-3.874 8.637-8.637 8.637zm33.737 44.093a4.968 4.968 0 01-3.536 1.464c-2.76 0-5-2.229-5-5a4.995 4.995 0 015-4.999c1.336 0 2.592.52 3.535 1.464a5.007 5.007 0 01.001 7.071zm45.961 21.967c-2.757 0-5-2.243-5-5s2.243-5 5-5 5 2.243 5 5-2.243 5-5 5zm53.033-29.038a5.007 5.007 0 01.001 7.071 5 5 0 11-.001-7.071zm-53.033-7.629c-21.137 0-38.333-17.196-38.333-38.333s17.196-38.333 38.333-38.333c21.138 0 38.334 17.197 38.334 38.333s-17.197 38.333-38.334 38.333zm70-33.333c-2.757 0-5-2.243-5-5s2.243-5 5-5 5 2.243 5 5-2.243 5-5 5z"/><path d="M298.217 260.167c-8.271 0-15 6.729-15 15 0 8.272 6.729 15 15 15 8.272 0 15-6.728 15-15 0-8.271-6.729-15-15-15zm0 20c-2.757 0-5-2.243-5-5s2.243-5 5-5 5 2.243 5 5-2.243 5-5 5zm-20 13.333c-6.433 0-11.666 5.233-11.666 11.667 0 6.433 5.233 11.666 11.666 11.666 6.434 0 11.667-5.233 11.667-11.666 0-6.434-5.234-11.667-11.667-11.667zm0 13.333a1.667 1.667 0 010-3.333 1.67 1.67 0 011.667 1.667c0 .919-.748 1.666-1.667 1.666zM223.5 183.5c16.542 0 30-13.458 30-30s-13.458-30-30-30-30 13.458-30 30 13.458 30 30 30zm0-50c11.028 0 20 8.972 20 20s-8.972 20-20 20-20-8.972-20-20 8.972-20 20-20zm-70 90c-13.785 0-25 11.215-25 25s11.215 25 25 25 25-11.215 25-25-11.215-25-25-25zm0 40c-8.272 0-15-6.728-15-15 0-8.271 6.728-15 15-15 8.271 0 15 6.729 15 15 0 8.272-6.729 15-15 15zm300-170c19.299 0 35-15.701 35-35s-15.701-35-35-35-35 15.701-35 35 15.701 35 35 35zm0-60c13.785 0 25 11.215 25 25s-11.215 25-25 25-25-11.215-25-25 11.215-25 25-25zm-385 365c-24.814 0-45 20.186-45 45s20.186 45 45 45c24.813 0 45-20.186 45-45s-20.187-45-45-45zm0 80c-19.299 0-35-15.701-35-35s15.701-35 35-35 35 15.701 35 35-15.701 35-35 35z"/><circle cx="386" cy="36" r="7.5"/><circle cx="141" cy="36" r="7.5"/><circle cx="56" cy="91" r="7.5"/><circle cx="476" cy="386" r="7.5"/><circle cx="313.5" cy="168.5" r="15"/><circle cx="186" cy="346" r="12.5"/><circle cx="401" cy="456" r="7.5"/><circle cx="156" cy="466" r="7.5"/><circle cx="41" cy="341" r="7.5"/></svg>