<svg width="50" height="50" fill="none" xmlns="http://www.w3.org/2000/svg"><g clip-path="url(#clip0)"><path d="M24.909 46.406a.695.695 0 01-.695-.69c0-1.065 0-26.147 13.64-36.694a.696.696 0 01.843 1.101C25.604 20.27 25.599 45.453 25.599 45.706a.695.695 0 01-.69.7z" fill="#5FA348"/><path d="M28.694 26.165s1.75-9.066 11.419-5.48c0 0-4.536 8.67-11.42 5.48z" fill="#65B54E"/><path d="M27.415 26.16s4.18-8.244-5.692-11.247c0 0-1.725 9.618 5.692 11.247zm6.209-10.72s3.47-7.305 10.887-2.146c-.015 0-5.763 6.357-10.887 2.146zm-1.101-.284s5.352-6.088-2.359-10.79c0 0-3.57 7.781 2.36 10.79z" fill="#65B54E"/><path d="M37.637 9.925S39.935.414 50 4.7c0 0-5.215 8.94-12.363 5.225z" fill="#65B54E"/><path d="M25.132 46.39a.507.507 0 00.4-.618C25.367 44.99 21.328 26.58 9.62 21.03a.522.522 0 10-.446.944c11.262 5.327 15.32 23.818 15.32 24.016.049.276.311.46.587.412l.032-.006.02-.005z" fill="#5FA348"/><path d="M22.463 39.872s-1.39-7.432-9.33-4.566c.016.02 3.69 7.148 9.33 4.566zm1.06.005s-3.383-6.768 4.713-9.188c0 0 1.37 7.884-4.713 9.188zM19.1 32.14s-2.724-6.371-9.268-2.186c0 0 4.728 5.636 9.268 2.187z" fill="#65B54E"/><path d="M20.039 31.933s-4.399-5.383 2.369-9.173c0 0 2.81 6.798-2.37 9.172zm-6.276-6.875s-3.718-4.809-8.335.173c0 0 5.24 3.749 8.335-.173z" fill="#65B54E"/><path d="M14.514 24.673s-4.906-3.602 0-8.3c0-.005 3.891 5.14 0 8.3zM9.918 21.66S6.706 15.064 0 19.793c0 0 5.281 5.737 9.918 1.867z" fill="#65B54E"/><path d="M24.25 37.02a14.21 14.21 0 012.378-4.494 14.265 14.265 0 00-1.917 2.8 3.224 3.224 0 00-.172-1.521c.185.58.195 1.203.03 1.79a14.235 14.235 0 00-1.491 5.444h.507c.02-1.23.205-2.452.548-3.633h.04a4.464 4.464 0 012.644-2.074 4.563 4.563 0 00-2.568 1.689z" fill="#5FA348"/><path d="M20.992 38.238h.03a4.483 4.483 0 00-1.795-2.029 4.443 4.443 0 011.588 1.897 14.962 14.962 0 00-1.76-1.014l.03-.03-1.765-1.568 1.522 1.476a14.718 14.718 0 00-3.277-1.116c1.334.36 2.61.91 3.79 1.634a16.96 16.96 0 01-3.166-.183c1.134.237 2.29.356 3.45.355.506.323.99.679 1.45 1.065l-3.622.157 3.85.036a13.557 13.557 0 011.863 1.953l.385-.304a14.214 14.214 0 00-2.573-2.329zm-.932-8.268c.024-.756.112-1.508.263-2.248a3.08 3.08 0 011.268-1.375 3.152 3.152 0 00-1.182 1.015c.215-.913.526-1.801.929-2.648-.27.49-.505 1-.705 1.522a2.232 2.232 0 00-.198-1.157c.218.508.238 1.08.055 1.603a12.966 12.966 0 00-.578 2.323 10.907 10.907 0 00-.7-1.572c.275.572.5 1.169.67 1.78a12.996 12.996 0 000 3.866l.44-.086a12.724 12.724 0 01-.258-2.704 3.43 3.43 0 011.522-1.882 3.46 3.46 0 00-1.527 1.562z" fill="#5FA348"/><path d="M20.19 32.531a12.922 12.922 0 00-2.764-1.563 5.225 5.225 0 00-1.902-1.349c.63.3 1.19.726 1.648 1.253a13.57 13.57 0 00-2.283-.67l-1.75-1.07 1.497 1.015a13.097 13.097 0 00-2.537-.228c1.331.053 2.647.308 3.901.756l-2.16.07 2.49.062a12.859 12.859 0 013.597 2.075l.264-.35zM14.986 25.5a10.962 10.962 0 01-.807-2.222c.087-.508.344-.972.73-1.314-.37.292-.64.69-.776 1.141a11.302 11.302 0 01-.294-2.288 2.537 2.537 0 011.116-1.994c-.53.325-.926.83-1.116 1.42v-.248c.023-.57.089-1.139.198-1.7-.119.494-.207.993-.264 1.497l-.32-1.014.3 1.141c-.057.568-.07 1.14-.04 1.71a2.398 2.398 0 00-.615-.822c.29.28.503.629.62 1.014.076 1.329.385 2.634.912 3.856l.356-.177z" fill="#5FA348"/><path d="M14.778 25.15c-.736-.3-1.501-.523-2.283-.665h-.04a12.12 12.12 0 00-1.427-.167 8.733 8.733 0 01-2.445-.579 8.402 8.402 0 001.66.563c-.986.013-1.966.15-2.918.406.438-.093.882-.16 1.33-.197a2.38 2.38 0 00-.848.466 2.591 2.591 0 011.415-.507c.806-.038 1.613.007 2.41.137-.811.18-1.565.56-2.192 1.106a4.931 4.931 0 012.633-1.015c.876.173 1.728.45 2.537.827l.168-.375zm-6.636-4.627a11.216 11.216 0 00-3.186-1.654 10.1 10.1 0 012.7 1.487 15.012 15.012 0 00-2.106-.508v-.03h-.086a14.171 14.171 0 00-3.074-.167 13.85 13.85 0 012.709.259c-.853.203-1.722.33-2.598.38a14.515 14.515 0 002.958-.31c.432.09.858.201 1.278.335a3.845 3.845 0 01-2.247.508 3.89 3.89 0 002.41-.452c.54.184 1.07.399 1.588.644-1.095.43-2.25.686-3.425.756a11.07 11.07 0 003.668-.639c.726.36 1.417.786 2.065 1.273l.284-.385a13.697 13.697 0 00-2.938-1.497zm28.78 2.044a18.677 18.677 0 00-3.41.143 17.851 17.851 0 013.663-1.42 18.062 18.062 0 00-5.072 1.907c.577-.506 1.12-1.05 1.623-1.629a17.801 17.801 0 01-2.942 2.446 17.277 17.277 0 00-3.374 2.972l.466.376a16.695 16.695 0 012.172-2.273l4.87-.05-4.566-.193a17.928 17.928 0 012.673-1.852c1.28-.28 2.587-.422 3.897-.427z" fill="#5FA348"/><path d="M27.181 23.47c.196-1.317.141-2.66-.162-3.957a9.633 9.633 0 01.056 3.638c-.31-.913-.69-1.8-1.137-2.654h.03l-.806-3.115.553 2.674a17.693 17.693 0 00-2.03-2.897 17.442 17.442 0 012.578 4.606 12.78 12.78 0 01-2.583-2.597 12.816 12.816 0 002.72 2.973c.619 1.757.943 3.605.958 5.468h.603a17.38 17.38 0 00-.78-4.139zm14.697-10.303a14.903 14.903 0 00-2.232.056c.502-.15.967-.404 1.365-.746a3.66 3.66 0 01-1.756.746v.035a19.11 19.11 0 00-1.303.213 17.08 17.08 0 00-1.522.411c.516-.437.962-.95 1.324-1.522a6.516 6.516 0 01-1.66 1.634 15.667 15.667 0 00-3.779 1.867l.32.421c.68-.517 1.402-.974 2.16-1.365a18.64 18.64 0 013.552 0 19.283 19.283 0 00-3.155-.218 15.833 15.833 0 013.104-1.106 4.793 4.793 0 012.537.426 4.823 4.823 0 00-1.877-.558c.962-.192 1.94-.29 2.922-.294z" fill="#5FA348"/><path d="M33.264 9.205a9.86 9.86 0 01-.375 3.201c-.08-.965-.25-1.922-.508-2.856.182-.93.199-1.884.051-2.82.118.845.08 1.704-.112 2.536a15.194 15.194 0 00-1.014-2.582 15.228 15.228 0 011.202 4.713 13.907 13.907 0 01-1.07-2.537 14.23 14.23 0 001.11 2.942 14.65 14.65 0 01-.4 4.566l.508.122a15.27 15.27 0 00.258-3.551c.35-1.212.47-2.478.35-3.734zM45.8 6.359a25.753 25.753 0 00-2.501-.04 18.376 18.376 0 013.55-1.137 18.812 18.812 0 00-5.341 1.71 5.391 5.391 0 001.207-1.735 5.232 5.232 0 01-1.77 2.029 18.77 18.77 0 00-4.708 3.55l.508.422a17.851 17.851 0 012.764-2.587 16.103 16.103 0 013.313-.38 15.658 15.658 0 00-3.003.156 18.54 18.54 0 013.19-1.861 25.445 25.445 0 012.79-.127z" fill="#5FA348"/></g><defs><clipPath id="clip0"><path fill="#fff" d="M0 0h50v50H0z"/></clipPath></defs></svg>