<svg xmlns="http://www.w3.org/2000/svg" viewBox="0 0 64 64"><g stroke="#000"><circle cx="34" cy="38" r="23" fill="#fff" stroke-width=".3"/><path d="M26 36.6V12a3 3 0 013-3h0a3 3 0 013 3v12.7h18v14.546a54.153 54.153 0 01-1.2 11.346L47 59H28s-1.483-7.771-3.758-11.111l-9.257-16.53a3.3 3.3 0 01.624-4.394h0a3.294 3.294 0 014.671.482z" fill="#fff" stroke-linecap="round" stroke-linejoin="round" stroke-width=".6"/><path d="M32 30.1V7a3 3 0 013-3h0a3 3 0 013 3v23.1" fill="#fff" stroke-linecap="round" stroke-linejoin="round" stroke-width=".6"/><path d="M38 30.1V13.041A3.04 3.04 0 0141.04 10h0a3.04 3.04 0 013.041 3.041V30.1" fill="#fff" stroke-linecap="round" stroke-linejoin="round" stroke-width=".6"/><path d="M44.081 31.02V17.959A2.959 2.959 0 0147.04 15h0A2.959 2.959 0 0150 17.959V32.8M9 4v2m0 4v2M5 8h2m4 0h2" fill="#fff" stroke-linecap="round" stroke-linejoin="round" stroke-width=".6"/><circle cx="58.5" cy="53.5" r="2.5" stroke-linecap="round" stroke-linejoin="round" stroke-width=".6"/><path d="M6.082 22.667A1.069 1.069 0 115.013 21.6a1.07 1.07 0 011.069 1.067zM57.151 32.6a1.069 1.069 0 11-1.069-1.069 1.069 1.069 0 011.069 1.069z" stroke-width=".3"/><path stroke-linecap="round" stroke-linejoin="round" stroke-width=".6" d="M45.533 42.938L52.504 45l-6.971 2.062L44 53.504l-1.533-6.442L35.496 45l6.971-2.062L44 36.496l1.533 6.442zM24.012 17.639L28.615 19l-4.603 1.361L23 24.615l-1.012-4.254L17.385 19l4.603-1.361L23 13.385l1.012 4.254z"/></g></svg>