<svg width="20" height="20" fill="none" xmlns="http://www.w3.org/2000/svg"><path d="M10 4.809A4.942 4.942 0 005.059 9.75 4.915 4.915 0 0010 14.691a4.942 4.942 0 004.941-4.941c0-2.707-2.234-4.941-4.941-4.941zm0 8.164A3.218 3.218 0 016.777 9.75c0-1.762 1.418-3.18 3.223-3.18a3.173 3.173 0 013.18 3.18c0 1.805-1.418 3.223-3.18 3.223zm6.273-8.336c0-.645-.515-1.16-1.16-1.16-.644 0-1.16.515-1.16 1.16 0 .644.516 1.16 1.16 1.16.645 0 1.16-.516 1.16-1.16zm3.266 1.16c-.086-1.547-.43-2.922-1.547-4.04C16.875.642 15.5.298 13.953.212c-1.59-.086-6.36-.086-7.95 0-1.546.086-2.878.43-4.038 1.547C.848 2.875.504 4.25.418 5.797c-.086 1.59-.086 6.36 0 7.95.086 1.546.43 2.878 1.547 4.038 1.16 1.117 2.492 1.461 4.039 1.547 1.59.086 6.36.086 7.95 0 1.546-.086 2.921-.43 4.038-1.547 1.117-1.16 1.461-2.492 1.547-4.039.086-1.59.086-6.36 0-7.95zm-2.062 9.625c-.301.86-.989 1.504-1.805 1.848-1.29.515-4.297.386-5.672.386-1.418 0-4.426.13-5.672-.386a3.258 3.258 0 01-1.848-1.848c-.515-1.246-.386-4.254-.386-5.672 0-1.375-.13-4.383.386-5.672a3.314 3.314 0 011.848-1.805c1.246-.515 4.254-.386 5.672-.386 1.375 0 4.383-.13 5.672.386.816.301 1.46.989 1.805 1.805.515 1.29.386 4.297.386 5.672 0 1.418.13 4.426-.386 5.672z" fill="#fff"/></svg>