<svg width="20" height="21" fill="none" xmlns="http://www.w3.org/2000/svg"><path d="M17.344 2.453c-.508-.43-2.54-1.914-6.992-1.914 0 0-5.274-.312-7.852 2.031C1.055 4.016.547 6.086.508 8.703c-.04 2.578-.117 7.461 4.57 8.79v1.991s-.039.82.508 1.016c.664.195 1.016-.43 1.64-1.094.352-.39.82-.898 1.172-1.328 3.204.274 5.665-.351 5.977-.43.625-.234 4.297-.703 4.883-5.546.625-5.04-.274-8.204-1.914-9.649zm.508 9.258c-.47 4.062-3.477 4.336-4.024 4.531-.234.04-2.383.586-5.117.43 0 0-2.031 2.422-2.656 3.086-.196.195-.43.195-.43-.235v-3.359C1.68 15.07 1.915 10.93 1.953 8.781c.04-2.187.43-3.945 1.64-5.156 2.188-1.992 6.68-1.68 6.68-1.68 3.79 0 5.586 1.172 6.016 1.524 1.406 1.21 2.11 4.062 1.563 8.242zm-5.43-3.125c-.04-1.133-.625-1.758-1.719-1.836-.351 0-.39.508-.039.508.82.078 1.211.469 1.29 1.328 0 .351.507.312.468 0zm.82.43c0 .312.508.351.508 0 .04-1.875-1.172-3.438-3.438-3.594-.351-.04-.39.469-.039.508 1.954.117 3.008 1.445 2.97 3.086zm1.836.507c-.039-3.398-2.344-5.39-5.234-5.43-.313 0-.313.509 0 .509 2.578.039 4.687 1.757 4.726 4.921 0 .352.508.352.508 0zm-.469 3.829c.196-.352.157-.665-.117-.899a9.485 9.485 0 00-1.797-1.289c-.43-.234-.86-.078-1.054.156l-.352.47c-.195.233-.547.194-.547.194-2.617-.664-3.32-3.28-3.32-3.28s0-.352.234-.548l.469-.39c.234-.196.352-.625.117-1.055a5.868 5.868 0 00-.586-.899c-.195-.312-.703-.859-.703-.859-.195-.312-.547-.351-.898-.156h-.04c-.742.39-1.562 1.21-1.288 1.992 0 0 .195.703 1.015 2.188.39.742.82 1.328 1.211 1.835.43.547 1.016 1.133 1.64 1.641 1.25.977 3.165 1.992 3.985 2.227h.04c.78.273 1.6-.547 1.991-1.29v-.038z" fill="#fff"/></svg>