<svg viewBox="0 0 512 512" xmlns="http://www.w3.org/2000/svg"><path d="M408.694 202.463s-7.288-11.592-7.949-12.6c-24.461-37.273-63.943-63.786-108.58-73.028a62.686 62.686 0 0021.478-47.62c0-33.874-26.105-61.433-58.193-61.433s-58.194 27.559-58.194 61.434a62.678 62.678 0 0021.558 47.685c-43.463 9.267-80.86 34.012-105.495 69.887-1.37 1.995-10.013 15.676-10.013 15.676a70.13 70.13 0 007.241 83.834l51.034 56.72-47.004 140.456a15.748 15.748 0 0014.935 20.744h50.685a15.652 15.652 0 0015.017-11.009l50.915-157.322a10.353 10.353 0 019.834-7.18h.036a10.344 10.344 0 019.873 7.18l50.892 157.253a15.674 15.674 0 0015.039 11.078h50.685a15.747 15.747 0 0014.933-20.745l-47.002-140.455 51.033-56.72a70.132 70.132 0 007.242-83.835zM209.256 69.216c0-27.258 20.723-49.434 46.193-49.434s46.194 22.176 46.194 49.434-20.723 49.432-46.194 49.432-46.193-22.175-46.193-49.432zM346.043 329.94l-6.169-18.435a90.136 90.136 0 01-4.666-28.397l-.003-.898 23.041-30.383a20.038 20.038 0 00-.163-24.4l-16.328-20.945a10.48 10.48 0 00-18.745 6.471l.188 66.722a6.073 6.073 0 00.003 1.147l.007 2.32a102.09 102.09 0 005.287 32.172l57.547 171.966a3.748 3.748 0 01-3.554 4.937h-50.685a3.752 3.752 0 01-3.6-2.704l-50.915-157.322A22.304 22.304 0 00256 316.706h-.078a22.33 22.33 0 00-21.21 15.486l-50.935 157.39a3.732 3.732 0 01-3.579 2.636h-50.685a3.75 3.75 0 01-3.555-4.937l57.549-171.968a102.136 102.136 0 005.286-32.17l.007-2.33a6.035 6.035 0 00.003-1.127l.187-66.73a10.48 10.48 0 00-18.745-6.473l-16.328 20.945a20.037 20.037 0 00-.162 24.4l23.041 30.384-.003.897a90.16 90.16 0 01-4.666 28.397l-6.17 18.436-46.49-51.67a58.084 58.084 0 01-5.996-69.431s8.463-13.4 9.74-15.26c23.287-33.913 58.886-57.138 100.24-65.398l10.18-2.032a55.18 55.18 0 0043.647-.004l10.403 2.013c42.38 8.203 79.935 33.092 103.032 68.286.618.94 7.819 12.395 7.819 12.395a58.084 58.084 0 01-5.998 69.431zm-10.893-67.516l-.127-45.06 13.597 17.44a8.025 8.025 0 01.064 9.773zm-158.299 0l-13.535-17.848a8.026 8.026 0 01.065-9.772l13.596-17.44z"/><path d="M347.74 101.174h14.106v14.106a6 6 0 1012 0v-14.106h14.106a6 6 0 000-12h-14.105V75.068a6 6 0 00-12 0v14.106H347.74a6 6 0 000 12zm-71.254 73.791a31.776 31.776 0 00-21.027 7.977 31.736 31.736 0 00-52.774 24.174 46.694 46.694 0 0018.424 37.044l25.743 19.475a14.31 14.31 0 0017.197-.001l25.74-19.474a46.694 46.694 0 0018.425-37.044v-.423a31.764 31.764 0 00-31.728-31.728z"/></svg>