<svg height="512pt" viewBox="-1 0 512 512" width="512pt" xmlns="http://www.w3.org/2000/svg"><path d="M509.469 257.094c-1.227-15.637-14.977-27.52-30.602-26.485-5.066.336-10.133.657-15.203.97v-18.517C463.664 95.579 368.086 0 250.602 0 133.117 0 37.539 95.578 37.539 213.063v17.968a2011.21 2011.21 0 01-6.844-.445C15.035 229.555 1.633 240.969.137 256.57c-.754 7.82 1.636 15.426 6.726 21.414 5.094 5.993 12.215 9.575 20.059 10.094a3468.315 3468.315 0 00228.402 7.512c75.973 0 151.934-2.485 227.313-7.453 7.746-.512 14.812-4.028 19.894-9.899 5.086-5.875 7.547-13.37 6.938-21.144zm-456.93-44.031C52.54 103.852 141.391 15 250.602 15c109.21 0 198.062 88.852 198.062 198.063v19.402c-5.644.32-11.297.629-16.945.922v-20.325c0-99.867-81.25-181.113-181.117-181.113-99.868 0-181.114 81.246-181.114 181.113v19.864a3462.52 3462.52 0 01-16.949-.969zm364.176 21.07a3420.746 3420.746 0 01-332.227-.426v-20.644c0-91.598 74.516-166.114 166.114-166.114 91.597 0 166.113 74.52 166.113 166.113zm74.476 34.289a13.706 13.706 0 01-9.539 4.746c-150.414 9.91-303.074 9.895-453.742-.059a13.7 13.7 0 01-9.613-4.84 13.683 13.683 0 01-3.227-10.265c.688-7.16 6.614-12.48 13.696-12.48.312 0 .625.007.941.03 149.344 9.864 300.797 9.872 450.148.02 7.485-.476 14.07 5.2 14.66 12.727a13.705 13.705 0 01-3.324 10.12zm-26.011 35.383a7.493 7.493 0 00-8.227 6.691 504.61 504.61 0 01-1.914 16.05 3545.63 3545.63 0 01-62.062 3l1.144-13.858a7.505 7.505 0 00-6.86-8.094 7.494 7.494 0 00-8.09 6.86l-1.292 15.655c-17.484.621-34.984 1.11-52.5 1.473l.59-14.293a7.495 7.495 0 00-7.184-7.8c-4.105-.188-7.633 3.042-7.8 7.183l-.63 15.191c-17.41.29-34.832.453-52.253.489v-14.79a7.5 7.5 0 00-7.5-7.5 7.497 7.497 0 00-7.5 7.5v14.79a3584.63 3584.63 0 01-52.258-.489l-.633-15.375c-.172-4.14-3.695-7.37-7.8-7.183a7.5 7.5 0 00-7.188 7.8l.597 14.48a3609.783 3609.783 0 01-52.496-1.472L122 314.086a7.505 7.505 0 00-8.094-6.86 7.504 7.504 0 00-6.855 8.094l1.176 14.227a3588.44 3588.44 0 01-62.063-2.996 485.687 485.687 0 01-1.984-16.762c-.418-4.117-4.086-7.105-8.22-6.703a7.498 7.498 0 00-6.706 8.215c5.012 49.469 19.34 119.672 59.129 173.219 12.789 17.207 33.234 27.48 54.695 27.48h215.047c21.46 0 41.906-10.273 54.695-27.484 39.637-53.34 53.989-123.239 59.055-172.485a7.5 7.5 0 00-6.695-8.226zm-12.45 37.898c-2.335 13.832-5.457 28.473-9.613 43.317a3551.13 3551.13 0 01-54.93 2.527l3.547-42.942c20.364-.792 40.7-1.761 60.996-2.902zm-32.378 102.281a3612.753 3612.753 0 01-36.95 1.559l3.543-42.938a3516.805 3516.805 0 0051.532-2.32c-4.852 14.774-10.813 29.54-18.125 43.7zM258.102 497v-34.02a3587.1 3587.1 0 0046.863-.398L303.547 497zm-60.446 0l-1.418-34.418c15.614.234 31.239.367 46.864.398V497zM62.723 400.285a3505.74 3505.74 0 0051.535 2.32l3.543 42.938a3613.07 3613.07 0 01-36.953-1.559c-7.309-14.156-13.27-28.921-18.125-43.699zm66.629 2.86c16.476.55 32.972.992 49.476 1.316l1.766 42.852a3520.305 3520.305 0 01-47.7-1.247zm64.5 1.585a3624.4 3624.4 0 0049.25.434v42.816a3561.807 3561.807 0 01-47.485-.41zm64.25 43.25v-42.816c16.418-.035 32.84-.18 49.25-.437l-1.766 42.843c-15.82.243-31.652.38-47.484.41zm64.273-43.52c16.504-.323 33-.765 49.473-1.315l-3.543 42.921c-15.88.524-31.782.938-47.696 1.247zm54.262-59.296l-3.543 42.93a3622.366 3622.366 0 01-50.098 1.351l1.766-42.847a3581.34 3581.34 0 0051.875-1.434zm-66.899 1.711l-1.765 42.844c-16.618.261-33.246.41-49.871.445v-42.812a3611.01 3611.01 0 0051.636-.477zm-66.636.477v42.812a3658.002 3658.002 0 01-49.872-.445l-1.765-42.844c17.207.281 34.422.441 51.637.477zm-66.66-.75l1.765 42.847a3628.06 3628.06 0 01-50.094-1.355l-3.547-42.93c17.278.606 34.57 1.082 51.875 1.438zm-66.973-1.997l3.547 42.942a3553.883 3553.883 0 01-54.934-2.527c-4.156-14.832-7.273-29.473-9.613-43.317 20.3 1.14 40.636 2.11 61 2.902zm-9.047 130.961a217.605 217.605 0 01-10.902-16.168c9.832.442 19.675.84 29.527 1.2l2.629 31.879c-8.336-3.672-15.715-9.457-21.254-16.91zm36.652 21.09l-2.933-35.539c15.671.504 31.367.906 47.074 1.207l1.43 34.676h-39.567a52.92 52.92 0 01-6.004-.344zM318.56 497l1.43-34.676c15.706-.3 31.402-.703 47.073-1.207l-2.933 35.54a52.92 52.92 0 01-6.004.343zm82.222-21.434c-5.539 7.454-12.918 13.239-21.254 16.91l2.633-31.878c9.852-.36 19.692-.758 29.524-1.2a217.605 217.605 0 01-10.903 16.168zm0 0"/></svg>