<svg width="18" height="19" fill="none" xmlns="http://www.w3.org/2000/svg"><path d="M15.094 3.328A8.533 8.533 0 008.96.75C4.195.75.289 4.656.289 9.422c0 1.562.43 3.047 1.172 4.336L.25 18.25l4.57-1.172c1.29.664 2.696 1.055 4.14 1.055 4.806 0 8.79-3.906 8.79-8.672 0-2.344-1.016-4.492-2.656-6.133zM8.96 16.648a7.22 7.22 0 01-3.672-1.015l-.234-.156-2.735.742.743-2.657-.196-.273a7.515 7.515 0 01-1.094-3.867c0-3.945 3.243-7.188 7.227-7.188 1.914 0 3.71.743 5.078 2.11 1.367 1.367 2.188 3.164 2.188 5.117 0 3.945-3.32 7.187-7.305 7.187zm3.984-5.39a48.326 48.326 0 00-1.484-.703c-.195-.078-.352-.117-.508.117-.117.195-.547.703-.664.86-.156.116-.273.155-.469.038-1.289-.625-2.11-1.133-2.968-2.578-.235-.39.234-.351.625-1.172.078-.156.039-.273 0-.39-.04-.117-.508-1.172-.665-1.602-.195-.43-.351-.39-.507-.39h-.39a.734.734 0 00-.587.273c-.195.234-.742.742-.742 1.797 0 1.094.742 2.11.86 2.265.117.118 1.523 2.305 3.71 3.243 1.367.625 1.914.664 2.617.546.391-.039 1.25-.507 1.446-1.015.195-.508.195-.938.117-1.016-.04-.117-.195-.156-.39-.273z" fill="#fff"/></svg>